# xmcd
#
# Track frame offsets: 
#        182
#        12410
#        24320
#        38597
#        47250
#        59687
#        68435
#        82632
#        95237
#        107447
#        118220
#        130535
#
# Disc length: 1928 seconds
#
# Revision: 1
# Processed by: cddbd v1.5.2PL0 Copyright (c) Steve Scherf et al.
# Submitted via: ExactAudioCopy v0.95b4
#
DISCID=8907860c
DTITLE=Hank Williams Jr. - Those Tear Jerking Songs
DYEAR=1992
DGENRE=Country
TTITLE0=Eleven Roses
TTITLE1=All I Can Give You Is My Heart
TTITLE2=Before You Fell Out Of Love With Me
TTITLE3=Country Music - Those Tear Jerking Songs
TTITLE4=The Last Love Song
TTITLE5=One Out Of Three Ain't Bad
TTITLE6=She Was Just Something To Do
TTITLE7=The Same Old Story
TTITLE8=I'd Rather Be Gone
TTITLE9=I'll Think Of Something
TTITLE10=Hank
TTITLE11=Pride's Not Hard To Swallow
EXTD=
EXTT0=
EXTT1=
EXTT2=
EXTT3=
EXTT4=
EXTT5=
EXTT6=
EXTT7=
EXTT8=
EXTT9=
EXTT10=
EXTT11=
PLAYORDER=
